<svg width="434" height="57" viewBox="0 0 434 57" fill="none" xmlns="http://www.w3.org/2000/svg">
<path d="M171.168 42.3716L150.161 28.8831L171.168 15.0527L194.264 28.7312L171.168 42.3716ZM154.416 28.8451L171.206 39.6739L189.706 28.7312L171.244 17.7884L154.416 28.8451Z" fill="#070A10"/>
<path d="M187.958 42.3716L166.952 28.8831L187.92 15.0527L211.054 28.7312L187.958 42.3716ZM171.206 28.8451L187.996 39.6739L206.496 28.7312L187.996 17.7884L171.206 28.8451Z" fill="#070A10"/>
<path d="M243.837 42.3716L222.83 28.8831L243.837 15.0527L266.933 28.7312L243.837 42.3716ZM227.084 28.8451L243.875 39.6739L262.374 28.7312L243.875 17.7884L227.084 28.8451Z" fill="#070A10"/>
<path d="M260.589 42.3716L239.62 28.8831L260.589 15.0527L283.723 28.7312L260.589 42.3716ZM243.875 28.8451L260.589 39.6739L279.088 28.7312L260.589 17.7884L243.875 28.8451Z" fill="#070A10"/>
<path d="M417.018 29.681H280.038C279.883 29.6861 279.729 29.6606 279.584 29.6061C279.439 29.5515 279.307 29.469 279.194 29.3631C279.081 29.2572 278.99 29.1302 278.926 28.9891C278.863 28.8481 278.827 28.6959 278.822 28.5412C278.827 28.3865 278.863 28.2342 278.926 28.0932C278.99 27.9522 279.081 27.8251 279.194 27.7192C279.307 27.6134 279.439 27.5308 279.584 27.4763C279.729 27.4217 279.883 27.3962 280.038 27.4013H417.018C417.334 27.3908 417.642 27.504 417.876 27.7168C418.11 27.9297 418.252 28.2254 418.272 28.5412C418.267 28.6992 418.23 28.8547 418.164 28.9984C418.098 29.142 418.004 29.2708 417.887 29.3772C417.77 29.4836 417.632 29.5653 417.483 29.6175C417.334 29.6697 417.176 29.6913 417.018 29.681Z" fill="#070A10"/>
<path d="M153.352 29.681H16.3723C16.2146 29.6913 16.0563 29.6697 15.9071 29.6175C15.7578 29.5653 15.6206 29.4836 15.5036 29.3772C15.3867 29.2708 15.2923 29.142 15.2262 28.9984C15.16 28.8547 15.1235 28.6992 15.1188 28.5412C15.1384 28.2254 15.2803 27.9297 15.5143 27.7168C15.7484 27.504 16.0562 27.3908 16.3723 27.4013H153.352C153.507 27.3962 153.661 27.4217 153.806 27.4763C153.951 27.5308 154.083 27.6134 154.196 27.7192C154.309 27.8251 154.4 27.9522 154.464 28.0932C154.528 28.2342 154.563 28.3865 154.568 28.5412C154.563 28.6959 154.528 28.8481 154.464 28.9891C154.4 29.1302 154.309 29.2572 154.196 29.3631C154.083 29.469 153.951 29.5515 153.806 29.6061C153.661 29.6606 153.507 29.6861 153.352 29.681Z" fill="#070A10"/>
<path d="M411.206 28.6172C415.005 28.6172 421.842 35.4564 421.842 35.4564C423.186 33.5348 424.925 31.9233 426.943 30.7304C428.961 29.5376 431.211 28.7911 433.542 28.5412C431.211 28.2913 428.961 27.5448 426.943 26.3519C424.925 25.1591 423.186 23.5476 421.842 21.626C421.842 21.626 415.043 28.5792 411.206 28.6172Z" fill="#070A10"/>
<path d="M22.2982 28.4652C18.4996 28.4652 11.6619 21.626 11.6619 21.626C10.3282 23.5483 8.59633 25.1609 6.58403 26.3542C4.57173 27.5474 2.32617 28.2933 0 28.5412C2.32617 28.7891 4.57173 29.535 6.58403 30.7282C8.59633 31.9214 10.3282 33.534 11.6619 35.4564C11.6619 35.4564 18.4616 28.5412 22.2982 28.4652Z" fill="#070A10"/>
<path d="M216.866 41.4598L202.127 20.0303L216.714 0.614502L231.605 20.0303L216.866 41.4598ZM205.052 20.1063L216.866 37.2423L228.68 20.1063L216.714 4.52805L205.052 20.1063Z" fill="#070A10"/>
<path d="M216.866 57.0001L202.127 35.5706L216.714 16.1548L231.605 35.5706L216.866 57.0001ZM205.052 35.6466L216.866 52.7826L228.68 35.6466L216.714 20.0683L205.052 35.6466Z" fill="#070A10"/>
</svg>
